<?xml version="1.0" standalone="no"?>
<!DOCTYPE svg PUBLIC "-//W3C//DTD SVG 20010904//EN"
 "http://www.w3.org/TR/2001/REC-SVG-20010904/DTD/svg10.dtd">
<svg version="1.0" xmlns="http://www.w3.org/2000/svg"
 width="1600.000000pt" height="650.000000pt" viewBox="0 0 1600.000000 650.000000"
 preserveAspectRatio="xMidYMid meet">

<g transform="translate(0.000000,650.000000) scale(0.100000,-0.100000)"
fill="#000000" stroke="none">
<path d="M5305 6040 c-11 -5 -43 -9 -72 -9 -28 -1 -55 -5 -58 -11 -3 -5 -24
-10 -45 -10 -21 0 -42 -4 -45 -10 -3 -5 -16 -10 -29 -10 -12 0 -26 -3 -30 -7
-4 -4 -19 -9 -33 -11 -14 -2 -44 -12 -67 -23 -22 -10 -46 -19 -53 -19 -7 0
-13 -4 -13 -10 0 -5 -11 -10 -25 -10 -14 0 -25 -4 -25 -10 0 -5 -9 -10 -20
-10 -11 0 -20 -4 -20 -10 0 -5 -9 -10 -20 -10 -11 0 -20 -4 -20 -10 0 -5 -7
-10 -15 -10 -9 0 -25 -9 -37 -20 -12 -11 -28 -20 -35 -20 -7 0 -13 -4 -13 -10
0 -5 -7 -10 -15 -10 -8 0 -15 -4 -15 -10 0 -5 -7 -10 -15 -10 -8 0 -15 -4 -15
-10 0 -5 -7 -10 -15 -10 -8 0 -15 -4 -15 -10 0 -5 -4 -10 -10 -10 -9 0 -35
-19 -65 -47 -8 -7 -16 -13 -20 -13 -4 0 -12 -6 -19 -12 -7 -7 -28 -24 -46 -38
-51 -39 -165 -152 -163 -161 2 -5 -5 -9 -14 -9 -9 0 -14 -3 -10 -6 3 -4 -1
-13 -9 -21 -19 -20 -15 -63 9 -85 32 -29 66 -12 160 83 49 49 95 89 103 89 9
0 12 5 9 10 -3 6 0 10 7 10 8 0 20 9 28 20 8 11 20 20 27 20 7 0 13 5 13 10 0
6 6 10 13 10 7 0 19 9 27 20 8 11 20 20 27 20 7 0 13 5 13 10 0 6 6 10 13 10
7 0 22 8 33 18 10 10 34 25 52 32 17 8 32 18 32 22 0 5 7 8 15 8 8 0 15 5 15
10 0 6 9 10 20 10 11 0 20 5 20 10 0 6 9 10 20 10 11 0 20 5 20 10 0 6 9 10
19 10 11 0 23 5 26 10 3 6 15 10 26 10 10 0 28 5 39 10 11 6 29 15 40 20 11 6
29 10 39 10 11 0 23 5 26 10 3 6 21 10 39 10 17 0 36 4 42 9 18 17 101 24 304
24 205 0 306 -8 316 -24 3 -5 20 -9 38 -9 18 0 36 -3 40 -7 9 -10 78 -33 99
-33 9 0 17 -4 17 -10 0 -5 11 -10 25 -10 14 0 25 -3 25 -7 0 -9 49 -33 67 -33
7 0 13 -4 13 -10 0 -5 9 -10 20 -10 11 0 20 -4 20 -10 0 -5 7 -10 15 -10 8 0
15 -4 15 -10 0 -5 9 -10 20 -10 11 0 20 -4 20 -10 0 -5 7 -10 15 -10 8 0 15
-4 15 -8 0 -5 12 -15 27 -23 34 -17 60 -37 86 -66 11 -13 25 -23 30 -23 15 0
205 -187 206 -203 0 -4 16 -23 35 -42 19 -19 37 -43 41 -55 3 -11 10 -20 15
-20 5 0 11 -8 14 -17 3 -10 16 -29 29 -43 12 -14 33 -45 45 -69 13 -24 29 -50
38 -58 8 -8 12 -18 9 -23 -3 -5 -1 -10 4 -12 5 -1 11 -10 13 -18 2 -8 9 -21
16 -28 7 -8 16 -27 19 -43 3 -16 9 -29 14 -29 5 0 9 -9 9 -19 0 -11 4 -22 9
-25 5 -3 12 -18 16 -33 3 -16 13 -42 22 -60 8 -17 16 -37 17 -45 2 -7 6 -21
10 -30 4 -9 9 -22 10 -30 2 -7 6 -20 9 -28 3 -8 15 -53 26 -100 20 -87 24
-101 40 -180 6 -25 17 -112 26 -195 26 -232 10 -605 -31 -715 -3 -8 -8 -26
-10 -40 -2 -14 -8 -34 -13 -45 -15 -32 -24 -59 -28 -80 -2 -11 -8 -24 -13 -29
-6 -6 -10 -18 -10 -28 0 -10 -4 -18 -10 -18 -5 0 -10 -7 -10 -16 0 -8 -7 -22
-15 -31 -8 -8 -13 -19 -10 -24 4 -5 3 -9 -2 -9 -4 0 -17 -18 -27 -40 -11 -22
-24 -40 -29 -40 -6 0 -8 -3 -4 -6 3 -4 1 -12 -6 -20 -29 -32 -37 -44 -32 -44
4 0 -10 -17 -29 -37 -20 -21 -38 -45 -41 -54 -3 -9 -16 -22 -30 -29 -14 -7
-27 -20 -30 -29 -3 -9 -17 -25 -32 -36 -15 -11 -36 -30 -47 -42 -11 -13 -26
-23 -33 -23 -8 0 -11 -4 -8 -10 3 -5 0 -10 -8 -10 -7 0 -23 -9 -35 -20 -12
-11 -26 -20 -32 -20 -5 0 -10 -4 -10 -8 0 -5 -16 -14 -35 -22 -19 -8 -35 -17
-35 -22 0 -4 -9 -8 -19 -8 -11 0 -23 -4 -26 -10 -3 -5 -15 -10 -26 -10 -10 0
-19 -4 -19 -10 0 -5 -9 -10 -19 -10 -11 0 -22 -4 -25 -9 -6 -9 -32 -15 -156
-32 -119 -17 -305 2 -336 34 -4 4 -15 7 -24 7 -9 0 -25 8 -36 18 -10 9 -31 23
-46 31 -15 8 -25 18 -22 23 3 4 -2 8 -10 8 -9 0 -16 4 -16 10 0 5 -11 20 -24
33 -13 13 -36 54 -51 93 -87 215 -5 438 225 611 30 23 125 78 210 124 210 111
284 160 358 237 92 94 153 231 186 415 l7 37 -43 0 c-95 1 -174 67 -202 167
-79 282 -190 427 -425 555 l-31 17 6 154 c9 202 -3 407 -22 407 -8 0 -14 -4
-14 -10 0 -5 -7 -10 -15 -10 -8 0 -34 -11 -57 -25 -24 -14 -51 -28 -60 -32
-10 -3 -18 -9 -18 -14 0 -5 -6 -9 -13 -9 -8 0 -34 -19 -59 -42 -98 -92 -129
-118 -138 -118 -6 0 -9 -4 -7 -9 2 -10 -59 -71 -72 -71 -5 0 -13 -9 -16 -20
-3 -11 -13 -20 -21 -20 -8 0 -12 -4 -9 -10 3 -5 -1 -10 -10 -10 -9 0 -13 -4
-10 -10 3 -5 1 -10 -4 -10 -6 0 -34 -22 -62 -50 -28 -27 -57 -50 -65 -50 -8 0
-14 -4 -14 -9 0 -5 -13 -14 -30 -21 -16 -7 -30 -16 -30 -21 0 -5 -6 -9 -13 -9
-7 0 -23 -9 -35 -20 -12 -11 -25 -20 -29 -20 -5 0 -15 -9 -23 -20 -8 -11 -19
-20 -25 -20 -6 0 -17 -9 -25 -20 -8 -11 -20 -20 -27 -20 -7 0 -13 -4 -13 -10
0 -5 -7 -10 -16 -10 -8 0 -12 -4 -9 -10 3 -5 -1 -10 -11 -10 -9 0 -78 -62
-154 -137 -127 -128 -248 -277 -312 -386 l-27 -45 -358 -4 c-342 -4 -361 -5
-428 -27 -94 -31 -162 -66 -338 -173 -82 -50 -181 -104 -220 -122 l-72 -31
-355 -5 c-377 -7 -374 -6 -481 -60 -60 -31 -147 -123 -186 -195 -71 -135 -108
-316 -100 -485 16 -307 190 -581 496 -777 135 -88 369 -183 566 -232 273 -68
693 -100 912 -70 171 23 348 81 568 184 236 112 342 142 452 131 228 -23 353
-188 341 -447 -3 -72 -9 -97 -36 -151 -131 -266 -590 -499 -1147 -582 -790
-118 -1567 117 -2080 629 -467 466 -649 1080 -509 1714 33 149 72 258 144 406
103 211 208 356 388 538 383 387 893 613 1427 634 321 12 605 -50 896 -198
122 -62 157 -70 180 -41 24 28 24 79 0 91 -10 6 -25 17 -33 23 -18 18 -138 78
-154 78 -8 0 -14 5 -14 10 0 6 -9 10 -20 10 -11 0 -20 4 -20 8 0 5 -22 15 -50
22 -27 7 -50 17 -50 22 0 4 -11 8 -24 8 -14 0 -28 5 -31 10 -3 6 -19 10 -35
10 -16 0 -31 4 -34 9 -3 5 -20 11 -38 14 -18 3 -55 11 -83 17 -27 6 -79 16
-115 22 -88 16 -536 15 -625 -1 -38 -6 -88 -14 -110 -17 -22 -4 -44 -10 -49
-15 -6 -5 -25 -9 -42 -9 -18 0 -36 -4 -39 -10 -3 -5 -19 -10 -35 -10 -16 0
-32 -4 -35 -10 -3 -5 -17 -10 -30 -10 -13 0 -27 -4 -30 -10 -3 -5 -17 -10 -30
-10 -13 0 -27 -4 -30 -10 -3 -5 -17 -10 -31 -10 -13 0 -24 -4 -24 -10 0 -5 -7
-10 -15 -10 -8 0 -23 -4 -33 -9 -9 -5 -66 -33 -127 -62 -60 -30 -112 -56 -115
-59 -9 -9 -65 -41 -83 -47 -9 -3 -17 -9 -17 -14 0 -5 -6 -9 -13 -9 -7 0 -28
-13 -47 -30 -19 -16 -41 -29 -47 -30 -7 0 -13 -4 -13 -10 0 -5 -5 -10 -10 -10
-6 0 -16 -4 -23 -10 -7 -5 -37 -29 -67 -52 -85 -65 -254 -233 -335 -333 -234
-289 -378 -610 -441 -980 -22 -126 -25 -472 -6 -590 81 -496 330 -925 733
-1260 144 -120 423 -294 472 -295 9 0 17 -4 17 -10 0 -5 9 -10 20 -10 11 0 20
-4 20 -10 0 -5 7 -10 15 -10 8 0 23 -4 33 -9 9 -5 31 -14 47 -21 17 -7 38 -16
47 -21 10 -5 27 -9 38 -9 11 0 20 -4 20 -10 0 -5 8 -10 17 -10 16 0 66 -14
108 -31 11 -4 32 -10 48 -13 15 -3 39 -9 55 -12 15 -3 36 -9 47 -14 11 -5 38
-11 60 -15 22 -3 65 -10 95 -15 145 -26 253 -34 465 -34 240 0 407 16 580 54
28 6 64 13 80 16 17 3 39 9 50 14 21 9 58 18 113 27 17 3 32 9 32 14 0 5 14 9
30 9 17 0 30 5 30 11 0 5 4 8 8 5 5 -3 21 2 36 10 16 7 37 14 47 14 11 0 19 5
19 10 0 6 7 10 15 10 8 0 23 4 33 9 74 37 106 51 118 51 8 0 14 4 14 8 0 5 16
14 35 22 19 8 35 17 35 20 0 3 16 12 35 20 19 8 35 17 35 22 0 4 5 8 11 8 5 0
24 13 42 30 18 16 36 30 40 30 5 0 22 14 37 30 15 17 31 30 34 30 4 0 18 11
32 25 14 14 22 25 19 25 -4 0 10 17 29 38 20 20 36 40 36 44 0 4 6 13 14 20 7
8 23 33 35 56 92 180 57 466 -77 631 -99 121 -297 188 -477 161 -106 -16 -173
-39 -374 -131 -190 -87 -322 -136 -446 -165 -67 -16 -118 -19 -320 -18 -257 0
-379 13 -590 60 -389 87 -706 269 -862 496 -64 92 -77 118 -109 215 -27 81
-44 253 -30 307 l6 26 108 0 c285 0 441 121 512 396 l10 42 178 4 c241 7 272
18 607 221 60 37 143 81 185 99 l75 33 318 3 c174 2 317 2 317 0 0 -1 -20 -52
-43 -113 -114 -289 -153 -561 -107 -755 42 -174 156 -351 277 -428 186 -118
416 -55 537 147 112 187 162 488 112 671 -68 251 -250 465 -476 561 -36 15
-65 32 -65 38 0 24 137 202 230 299 140 148 248 239 399 340 98 66 168 123
281 232 163 158 243 230 256 230 5 0 10 -99 11 -221 l3 -220 71 -28 c120 -47
206 -119 279 -235 37 -58 95 -201 95 -234 0 -30 47 -118 84 -159 20 -22 56
-51 81 -64 42 -22 46 -27 41 -52 -10 -52 -65 -154 -110 -204 -57 -63 -142
-119 -336 -222 -85 -45 -181 -102 -215 -125 -63 -46 -157 -137 -201 -196 -35
-47 -84 -145 -84 -168 0 -10 -4 -22 -9 -28 -11 -10 -20 -55 -28 -133 -5 -50
11 -183 26 -206 3 -5 6 -12 6 -15 1 -3 8 -19 18 -36 9 -17 13 -34 10 -38 -4
-3 -1 -6 5 -6 6 0 13 -8 17 -19 12 -38 150 -181 175 -181 6 0 10 -4 10 -10 0
-5 7 -10 15 -10 14 0 53 -18 65 -30 9 -9 76 -30 98 -30 11 0 24 -5 27 -10 9
-14 290 -12 347 3 26 7 50 16 54 20 4 4 18 7 31 7 13 0 33 5 46 12 47 24 57
28 72 28 8 0 15 5 15 10 0 6 9 10 20 10 11 0 20 5 20 10 0 6 8 10 18 10 10 0
28 9 40 20 12 11 26 20 32 20 5 0 10 5 10 10 0 6 7 10 15 10 8 0 15 5 15 10 0
6 7 10 15 10 8 0 15 5 15 10 0 6 4 10 10 10 16 0 238 210 222 210 -4 1 4 10
17 20 13 11 19 20 15 20 -5 0 2 7 14 16 12 8 22 20 22 26 0 7 8 21 19 32 10
12 29 41 42 66 13 25 27 47 30 50 3 3 16 25 29 50 12 25 29 57 37 73 8 15 12
27 9 27 -3 0 4 18 15 40 11 21 22 45 23 52 2 7 6 20 9 28 3 8 8 26 12 40 3 14
11 41 16 60 35 135 68 456 54 538 -3 21 -10 92 -15 157 -13 167 -27 255 -58
385 -5 19 -9 38 -10 43 0 4 -8 33 -17 65 -58 212 -82 270 -212 524 -8 15 -19
30 -24 33 -5 4 -7 10 -4 14 2 5 -4 16 -15 26 -11 10 -20 24 -20 32 0 7 -5 13
-11 13 -5 0 -8 4 -5 9 3 5 -1 11 -9 15 -8 3 -15 11 -15 17 0 6 -8 19 -19 28
-10 9 -25 30 -34 46 -8 17 -34 49 -57 73 -23 23 -39 42 -35 42 4 0 -32 38 -79
85 -46 47 -87 85 -91 85 -3 0 -16 10 -29 23 -38 36 -66 57 -76 57 -6 0 -10 5
-10 10 0 6 -7 10 -15 10 -8 0 -15 5 -15 10 0 6 -7 10 -15 10 -8 0 -15 5 -15
10 0 6 -7 10 -15 10 -8 0 -15 5 -15 10 0 6 -7 10 -15 10 -8 0 -15 5 -15 10 0
6 -7 10 -15 10 -8 0 -15 3 -15 8 0 8 -61 38 -72 34 -5 -1 -8 3 -8 8 0 6 -9 10
-20 10 -11 0 -20 5 -20 10 0 6 -7 10 -15 10 -8 0 -24 5 -35 10 -11 6 -29 15
-40 20 -11 6 -27 10 -35 10 -8 0 -15 5 -15 10 0 6 -13 10 -30 10 -16 0 -30 5
-30 10 0 6 -13 10 -29 10 -17 0 -33 5 -36 10 -3 6 -23 10 -44 10 -20 0 -41 4
-47 9 -5 5 -34 12 -64 15 -98 12 -364 16 -385 6z m-710 -2045 c179 -89 330
-295 366 -499 31 -178 -49 -471 -159 -581 -74 -74 -161 -93 -250 -55 -107 46
-220 205 -256 360 -43 180 11 480 133 754 31 67 32 68 63 62 18 -3 64 -22 103
-41z m-2088 -330 c-17 -106 -101 -216 -197 -259 -63 -29 -183 -47 -253 -38
-33 4 -37 7 -31 26 34 111 85 193 149 242 60 45 128 63 239 64 l99 0 -6 -35z"/>
<path d="M8453 5803 c-25 -5 -28 -18 -13 -57 8 -21 -23 -100 -200 -527 -116
-276 -210 -504 -210 -506 0 -2 22 -3 50 -3 62 0 59 -4 140 216 l62 171 75 7
c42 3 133 6 202 6 l126 0 76 -197 75 -198 72 1 c39 1 78 4 87 7 17 7 40 -58
-218 607 l-184 475 -59 1 c-32 1 -69 0 -81 -3z m126 -415 l78 -208 -172 0
-172 0 59 158 c115 308 111 298 120 277 4 -11 43 -113 87 -227z"/>
<path d="M11924 5773 c-53 -10 -76 -93 -40 -148 14 -21 24 -25 64 -25 26 0 57
7 69 15 45 32 37 131 -13 154 -25 11 -40 12 -80 4z"/>
<path d="M13785 5738 c-32 -17 -75 -60 -107 -106 -24 -35 -27 -46 -18 -57 19
-22 32 -18 69 20 49 52 67 53 157 6 103 -55 131 -54 192 3 26 25 58 63 70 85
22 39 22 40 4 50 -16 8 -26 3 -57 -29 -24 -24 -48 -40 -62 -40 -13 0 -58 18
-99 40 -77 41 -114 48 -149 28z"/>
<path d="M9307 5400 c-70 -12 -153 -56 -183 -96 -31 -40 -41 -106 -24 -158 16
-49 76 -97 162 -131 181 -70 215 -101 195 -177 -10 -37 -54 -58 -122 -58 -49
0 -61 4 -85 28 -17 17 -30 44 -35 70 -8 47 -23 52 -84 31 -37 -13 -51 -35 -51
-82 0 -91 159 -147 320 -113 122 26 200 88 216 172 19 100 -40 171 -189 229
-54 20 -112 47 -130 59 -99 67 -50 160 85 160 51 1 61 -3 89 -30 16 -17 36
-48 44 -70 9 -26 20 -40 34 -42 20 -3 21 1 21 92 l0 95 -37 11 c-55 15 -170
20 -226 10z"/>
<path d="M9910 5396 c-147 -32 -225 -121 -201 -227 17 -76 59 -110 208 -170
117 -47 163 -84 163 -131 0 -41 -48 -88 -92 -89 -54 -2 -92 2 -110 12 -25 13
-48 62 -48 100 l0 32 -47 -6 c-63 -7 -98 -44 -89 -95 7 -45 26 -65 89 -93 72
-32 207 -31 290 1 104 39 157 102 157 185 0 53 -16 89 -57 126 -34 32 -63 47
-173 90 -47 18 -97 45 -112 60 -53 52 -28 118 53 139 90 24 165 -15 190 -98
10 -35 17 -42 37 -42 l25 0 -7 93 c-4 50 -10 95 -14 99 -9 9 -128 28 -172 27
-19 0 -60 -6 -90 -13z"/>
<path d="M10615 5399 c-160 -23 -282 -148 -300 -307 -27 -241 163 -422 402
-383 127 20 219 88 272 200 23 49 26 68 25 156 0 80 -4 109 -21 147 -44 96
-139 170 -235 183 -24 4 -52 8 -63 9 -11 2 -47 -1 -80 -5z m102 -88 c91 -42
137 -152 131 -315 -4 -111 -19 -151 -71 -190 -44 -32 -131 -29 -184 6 -63 42
-102 129 -110 244 -8 135 24 220 97 256 45 23 84 22 137 -1z"/>
<path d="M11454 5400 c-203 -30 -330 -158 -342 -345 -11 -174 85 -314 236
-346 46 -9 71 -8 141 5 98 20 241 72 241 89 -1 34 -15 38 -86 21 -222 -52
-374 62 -374 281 0 141 62 214 181 215 74 0 99 -19 106 -83 6 -55 22 -63 82
-47 50 13 76 55 67 105 -8 43 -64 92 -113 100 -73 12 -88 13 -139 5z"/>
<path d="M12442 5395 c-84 -19 -201 -56 -207 -66 -3 -4 -1 -19 5 -33 9 -25 10
-25 48 -12 70 25 179 37 223 26 68 -19 92 -59 93 -155 l1 -50 -103 -7 c-214
-14 -310 -72 -320 -191 -6 -75 22 -136 79 -174 59 -39 132 -37 254 5 49 17 93
28 96 24 4 -4 9 -16 11 -27 3 -17 11 -20 63 -20 88 1 95 5 84 55 -5 24 -8 142
-7 264 3 220 3 222 -23 271 -17 34 -38 57 -65 72 -52 29 -150 37 -232 18z
m161 -382 c0 -13 -1 -58 -2 -102 l-1 -78 -56 -18 c-115 -36 -204 5 -204 95 0
94 56 130 200 127 60 -2 64 -4 63 -24z"/>
<path d="M13237 5398 c-134 -13 -247 -90 -304 -206 -54 -109 -41 -276 27 -371
36 -50 109 -98 159 -107 74 -11 75 -14 31 -69 -48 -60 -48 -85 0 -98 49 -12
70 -34 70 -74 0 -26 -6 -37 -31 -52 -17 -10 -48 -22 -70 -25 -34 -6 -40 -10
-37 -29 3 -20 8 -22 68 -21 140 2 220 92 176 198 -12 30 -26 42 -65 59 l-50
21 21 35 c30 51 27 49 105 71 93 26 183 60 183 69 0 4 -6 14 -12 23 -12 15
-20 15 -78 2 -133 -28 -225 -9 -295 60 -53 54 -77 122 -77 222 0 58 5 84 23
121 34 67 66 87 147 91 60 3 69 1 89 -20 11 -12 25 -43 30 -68 9 -45 9 -45 49
-43 58 4 88 31 92 82 7 101 -82 147 -251 129z"/>
<path d="M13840 5396 c-36 -8 -96 -25 -135 -38 -63 -21 -70 -25 -67 -47 1 -14
5 -27 7 -30 3 -3 37 3 75 13 101 27 191 26 227 0 40 -30 53 -61 53 -130 l0
-61 -102 -6 c-164 -10 -252 -45 -299 -121 -31 -48 -23 -151 14 -200 59 -77
151 -90 287 -41 41 14 82 29 91 32 12 3 20 -5 28 -28 l11 -32 66 6 c37 4 68 8
68 9 1 2 0 127 -3 278 -6 268 -7 276 -30 317 -44 77 -156 107 -291 79z m160
-457 l0 -100 -36 -15 c-99 -41 -193 -22 -221 44 -17 41 -11 90 15 122 22 28
98 48 180 49 l62 1 0 -101z"/>
<path d="M14604 5399 c-116 -14 -218 -85 -270 -186 -27 -53 -29 -67 -29 -163
0 -95 3 -111 28 -162 35 -72 110 -141 180 -165 74 -26 194 -23 272 7 81 31
164 114 193 193 27 70 30 202 7 266 -54 153 -197 232 -381 210z m75 -79 c84
-24 148 -131 158 -265 12 -155 -42 -261 -139 -272 -94 -11 -166 42 -208 153
-26 69 -32 204 -12 272 28 92 110 138 201 112z"/>
<path d="M11905 5385 c-120 -29 -136 -35 -133 -53 2 -12 15 -18 43 -20 22 -2
45 -8 50 -13 6 -6 12 -126 15 -297 l5 -287 61 1 c104 1 95 -32 92 346 l-3 333
-35 2 c-19 1 -62 -5 -95 -12z"/>
<path d="M5745 4520 c-11 -4 -33 -22 -49 -39 -39 -40 -47 -120 -18 -167 44
-69 155 -84 213 -28 54 52 62 132 17 189 -36 46 -111 67 -163 45z"/>
<path d="M8710 4373 c-14 -2 -67 -13 -118 -24 -74 -17 -92 -24 -88 -36 3 -8 6
-17 6 -19 0 -2 15 -4 34 -4 62 0 66 -16 66 -252 l0 -208 -103 0 c-158 0 -253
-36 -335 -124 -54 -59 -79 -110 -92 -188 -22 -143 38 -291 146 -354 65 -38
128 -36 270 10 61 20 114 36 117 36 4 0 7 -8 7 -18 0 -10 6 -27 14 -37 12 -16
20 -17 75 -9 l62 9 -1 599 c-1 575 -3 630 -29 625 -3 -1 -17 -4 -31 -6z m-170
-629 c66 -26 70 -44 70 -273 l0 -200 -52 -16 c-68 -21 -139 -29 -172 -21 -45
11 -103 73 -126 134 -59 157 -24 318 82 371 53 26 140 28 198 5z"/>
<path d="M12251 4364 c-69 -18 -108 -43 -160 -99 -75 -81 -101 -172 -101 -350
l0 -115 -55 0 c-54 0 -55 0 -55 -30 0 -30 1 -30 55 -30 l55 0 0 -301 0 -302
72 7 c40 4 76 12 80 19 4 6 8 139 8 294 l0 282 103 3 102 3 0 35 0 35 -102 -4
-103 -3 0 174 c0 251 24 307 134 316 67 5 90 -14 100 -82 9 -55 19 -61 75 -46
117 31 83 171 -48 199 -66 14 -93 13 -160 -5z"/>
<path d="M10190 4215 c-58 -7 -111 -14 -117 -14 -7 -1 -13 -13 -13 -27 0 -20
4 -24 19 -19 21 6 72 -11 83 -28 4 -7 8 -227 8 -489 0 -262 4 -479 8 -482 5
-3 94 -8 198 -12 228 -8 312 5 444 68 194 93 300 270 300 498 0 156 -50 290
-137 371 -50 46 -158 100 -248 125 -83 22 -403 28 -545 9z m465 -85 c185 -70
285 -228 285 -449 -1 -238 -115 -404 -315 -456 -59 -15 -219 -20 -262 -9 l-23
6 0 459 c0 425 1 459 18 469 30 19 228 6 297 -20z"/>
<path d="M13295 3830 c-82 -15 -131 -39 -175 -86 l-42 -46 4 -69 c3 -62 7 -72
38 -104 36 -37 65 -53 195 -106 95 -39 135 -74 135 -119 0 -67 -95 -116 -174
-90 -46 15 -69 43 -76 93 l-5 42 -45 -2 c-49 -2 -90 -36 -90 -74 0 -91 138
-150 297 -128 137 19 232 93 241 188 9 101 -42 156 -205 222 -136 55 -165 78
-161 132 4 53 36 77 114 84 79 7 120 -20 149 -95 14 -35 26 -52 38 -52 16 0
17 9 15 97 -3 94 -4 97 -29 103 -47 13 -174 18 -224 10z"/>
<path d="M13910 3820 c-126 -27 -186 -52 -182 -76 6 -34 19 -37 88 -19 104 26
164 30 206 12 53 -22 71 -56 72 -135 l1 -67 -103 -7 c-175 -11 -259 -47 -299
-128 -50 -98 -10 -206 94 -252 55 -24 98 -20 226 23 49 16 90 29 91 29 2 0 6
-13 10 -30 5 -28 8 -30 53 -29 27 1 59 4 72 8 l24 6 -2 245 c-1 135 -7 267
-13 295 -15 69 -65 118 -136 134 -69 15 -100 13 -202 -9z m190 -451 l0 -100
-37 -15 c-126 -53 -233 -10 -233 92 0 61 35 100 103 113 54 11 146 18 160 13
4 -2 7 -48 7 -103z"/>
<path d="M9169 3814 c-101 -31 -202 -129 -235 -226 -22 -68 -20 -192 6 -260
45 -121 144 -190 272 -190 74 0 206 33 295 72 34 15 41 22 36 39 -6 25 -2 24
-78 6 -187 -45 -337 22 -380 170 -9 31 -14 62 -12 69 4 10 46 15 154 20 242
11 270 15 277 40 20 74 -5 188 -50 228 -54 48 -187 63 -285 32z m140 -80 c28
-20 51 -72 51 -114 0 -40 -16 -46 -167 -54 -136 -8 -131 -11 -112 59 15 53 41
89 81 108 43 21 117 22 147 1z"/>
<path d="M11469 3815 c-99 -36 -176 -99 -218 -179 -66 -127 -47 -303 45 -405
102 -113 236 -123 475 -34 59 22 70 29 67 47 -3 24 -12 24 -103 6 -126 -26
-247 7 -306 81 -33 42 -59 108 -59 148 l0 27 211 12 c116 6 213 13 215 15 11
11 14 118 5 155 -14 51 -64 110 -108 128 -41 18 -176 17 -224 -1z m130 -79
c34 -18 51 -54 51 -111 0 -52 4 -50 -172 -61 l-108 -6 0 29 c0 43 40 115 79
140 40 27 107 31 150 9z"/>
<path d="M12623 3815 c-179 -55 -285 -229 -253 -413 34 -195 173 -292 368
-258 76 14 248 71 257 85 2 5 -1 16 -8 25 -12 16 -16 16 -77 0 -81 -21 -190
-14 -247 14 -57 30 -109 92 -127 153 -28 92 -43 84 195 96 116 6 214 14 217
18 4 4 7 44 7 89 0 73 -3 87 -27 123 -39 58 -95 83 -189 82 -41 0 -93 -6 -116
-14z m145 -93 c33 -31 54 -114 34 -134 -9 -9 -167 -26 -251 -28 -33 0 -34 1
-28 36 16 96 77 154 162 154 44 0 58 -5 83 -28z"/>
<path d="M3625 3738 c-70 -39 -97 -104 -70 -174 31 -82 116 -114 194 -74 94
47 95 196 2 245 -35 17 -97 19 -126 3z"/>
<path d="M12428 2816 c-54 -12 -101 -25 -104 -29 -16 -15 7 -37 39 -37 64 0
62 22 67 -589 l5 -556 61 1 c34 0 69 4 78 7 15 6 16 57 14 614 l-3 608 -30 2
c-16 1 -74 -8 -127 -21z"/>
<path d="M8488 2701 c-26 -4 -50 -10 -54 -13 -3 -4 -1 -22 5 -40 10 -31 -1
-63 -199 -537 -116 -278 -210 -506 -210 -508 0 -2 22 -3 50 -3 37 0 53 5 61
18 7 10 41 99 78 198 l66 179 201 3 200 2 76 -197 75 -198 78 2 c43 1 81 5 86
10 4 4 -23 87 -60 183 -37 96 -127 330 -200 520 -73 190 -140 355 -147 368
-15 23 -24 24 -106 13z m62 -336 c29 -77 65 -175 81 -217 l28 -78 -174 0 -173
0 23 63 c13 34 46 123 73 197 73 197 72 194 81 184 5 -5 32 -72 61 -149z"/>
<path d="M10043 2658 c-45 -22 -49 -121 -6 -154 22 -16 74 -18 107 -3 51 24
59 121 13 154 -25 17 -81 19 -114 3z"/>
<path d="M9485 2275 c-49 -13 -106 -31 -126 -39 l-37 -15 -6 34 c-6 32 -10 35
-42 35 -19 0 -78 -10 -130 -22 -83 -19 -94 -24 -94 -43 0 -18 5 -21 29 -17 22
3 36 -2 55 -21 l26 -26 0 -282 0 -282 71 7 c39 3 75 9 80 12 5 3 9 126 9 274
l0 269 71 22 c128 39 214 10 239 -80 5 -20 10 -141 10 -270 l0 -234 71 7 c39
3 75 9 80 12 14 8 11 510 -3 557 -23 77 -97 128 -183 126 -16 0 -70 -11 -120
-24z"/>
<path d="M10755 2282 c-38 -10 -96 -28 -127 -40 l-57 -21 -3 32 c-3 30 -6 32
-43 35 -22 1 -80 -8 -130 -20 -73 -19 -90 -26 -90 -42 0 -14 8 -19 38 -21 21
-1 43 -7 50 -14 9 -9 13 -95 17 -299 l5 -287 61 1 c102 1 94 -24 94 283 l0
270 66 21 c112 34 181 21 219 -43 18 -29 20 -55 23 -286 l3 -254 70 6 c38 3
74 9 79 12 7 4 10 100 9 273 l-1 267 64 22 c34 12 79 22 98 23 44 0 98 -27
124 -63 20 -27 21 -44 24 -284 l3 -256 71 6 c41 4 75 12 80 19 5 7 7 132 6
278 -3 299 -8 320 -78 366 -72 48 -179 40 -345 -25 l-74 -29 -16 24 c-37 56
-130 74 -240 46z"/>
<path d="M11855 2276 c-133 -35 -165 -50 -158 -75 3 -12 9 -24 13 -26 5 -3 46
4 92 15 185 44 253 11 265 -131 7 -68 12 -65 -130 -73 -196 -11 -297 -82 -297
-208 1 -63 31 -122 81 -155 59 -39 132 -37 254 5 49 17 93 28 96 24 4 -4 9
-16 11 -27 2 -16 12 -21 45 -23 62 -5 109 10 104 34 -2 10 -4 129 -5 264 -1
212 -4 250 -19 285 -26 58 -54 83 -111 100 -69 21 -135 18 -241 -9z m208 -452
l-6 -101 -52 -17 c-122 -38 -205 3 -205 102 0 83 42 111 180 122 41 3 78 3 82
0 4 -3 5 -51 1 -106z"/>
<path d="M10010 2267 c-67 -16 -95 -26 -95 -37 0 -9 14 -17 38 -21 70 -11 69
-5 72 -318 1 -155 5 -285 8 -288 4 -3 37 -2 74 3 l68 9 0 335 0 335 -35 2
c-19 1 -78 -8 -130 -20z"/>
<path d="M8091 1092 c-48 -8 -66 -28 -29 -34 l23 -3 3 -258 2 -258 43 3 42 3
1 253 c0 172 4 256 11 263 19 19 100 1 135 -30 27 -24 32 -36 35 -87 6 -83
-17 -118 -92 -139 -68 -20 -73 -39 -7 -30 64 10 121 36 156 73 23 25 30 43 34
85 9 114 -51 160 -213 163 -55 1 -120 -1 -144 -4z"/>
<path d="M10641 1092 c-46 -7 -70 -32 -32 -32 36 0 42 -40 40 -284 l-1 -231
117 -3 c102 -2 123 0 161 18 56 28 84 73 84 137 0 61 -22 94 -80 117 -22 9
-40 18 -40 21 0 2 14 12 30 20 91 47 92 177 3 221 -41 19 -196 28 -282 16z
m241 -61 c33 -37 37 -93 11 -140 -21 -36 -53 -49 -128 -54 l-40 -2 -3 104 c-1
58 0 111 3 119 4 12 19 14 68 9 53 -5 66 -10 89 -36z m-31 -233 c60 -17 74
-40 74 -114 0 -91 -18 -108 -122 -108 l-78 -1 -3 118 -3 117 47 0 c26 0 64 -5
85 -12z"/>
<path d="M13260 1094 c0 -3 -36 -144 -80 -314 -44 -170 -80 -313 -80 -319 0
-6 6 -11 14 -11 17 0 22 13 86 265 46 179 82 318 96 368 4 12 0 17 -15 17 -12
0 -21 -3 -21 -6z"/>
<path d="M13442 1086 c-75 -25 -112 -73 -112 -148 0 -80 37 -116 172 -169 71
-28 108 -64 108 -105 0 -113 -201 -136 -246 -28 -8 19 -18 34 -23 34 -9 0 -3
-120 6 -130 2 -2 52 -5 111 -5 96 0 112 3 152 25 52 29 80 76 80 135 0 63 -29
99 -107 134 -134 62 -158 76 -171 104 -11 22 -11 35 -2 62 14 43 53 65 113 65
51 0 88 -24 107 -70 20 -49 33 -36 27 26 -3 31 -10 61 -14 65 -17 17 -156 20
-201 5z"/>
<path d="M13810 1093 c-53 -8 -70 -14 -70 -23 0 -6 8 -10 18 -10 40 0 42 -15
42 -273 l0 -248 38 3 37 3 5 260 5 260 46 -1 c83 -1 131 -51 131 -134 0 -78
-35 -116 -126 -135 -18 -4 -25 -10 -19 -16 13 -13 102 5 152 30 55 28 81 75
81 144 0 72 -30 110 -103 132 -47 14 -173 18 -237 8z"/>
<path d="M9536 1077 c-12 -9 -17 -23 -14 -42 2 -25 8 -30 35 -33 36 -4 58 23
46 55 -12 34 -38 41 -67 20z"/>
<path d="M12480 977 c-20 -10 -26 -22 -30 -57 -4 -37 -9 -46 -27 -48 -31 -5
-29 -22 2 -22 l25 0 0 -115 c0 -140 12 -178 63 -194 28 -10 44 -8 88 6 66 23
80 47 20 37 -30 -5 -48 -2 -66 10 -24 16 -25 19 -25 136 l0 120 55 0 c42 0 55
3 55 15 0 12 -13 15 -55 15 l-55 0 0 55 c0 59 -6 64 -50 42z"/>
<path d="M10125 889 c-72 -14 -115 -33 -106 -47 6 -10 14 -10 35 -2 32 12 106
13 123 2 14 -9 33 -56 33 -82 0 -15 -11 -19 -62 -25 -76 -9 -135 -31 -148 -56
-18 -33 -12 -94 13 -117 39 -37 86 -36 180 3 12 5 17 2 17 -9 0 -12 10 -16 38
-16 l37 0 -3 137 c-1 76 -5 148 -7 160 -10 43 -77 67 -150 52z m85 -232 c0
-29 -5 -58 -12 -65 -16 -16 -99 -15 -120 2 -31 23 -20 102 16 109 11 2 42 5
69 6 l47 1 0 -53z"/>
<path d="M11195 889 c-72 -14 -115 -33 -106 -47 6 -10 14 -10 35 -2 31 12 106
13 122 2 17 -11 34 -48 34 -75 0 -23 -5 -26 -62 -32 -72 -8 -125 -28 -144 -53
-22 -28 -17 -87 10 -119 20 -24 31 -28 68 -26 25 1 62 9 83 17 35 15 40 15 47
1 5 -8 23 -15 41 -15 l32 0 -2 144 c-1 82 -6 153 -12 165 -20 37 -78 53 -146
40z m85 -234 c0 -63 -13 -75 -79 -75 -30 0 -44 6 -55 22 -18 25 -21 78 -5 78
5 0 8 4 4 9 -5 10 24 17 90 24 17 1 33 1 38 -1 4 -2 7 -28 7 -57z"/>
<path d="M8555 873 c-76 -40 -109 -99 -103 -185 5 -62 23 -96 71 -132 35 -26
111 -26 186 1 70 24 81 46 19 37 -23 -4 -45 -7 -48 -6 -65 1 -75 4 -111 41
-29 28 -39 47 -39 70 l0 31 64 0 c35 0 84 3 110 6 l46 7 0 46 c-1 49 -12 71
-47 89 -31 17 -113 14 -148 -5z m109 -29 c9 -9 16 -32 16 -55 l0 -39 -49 0
c-27 0 -63 -3 -80 -6 -29 -6 -31 -4 -31 20 0 31 24 82 42 89 28 12 87 6 102
-9z"/>
<path d="M8838 878 c-40 -11 -51 -28 -18 -28 32 0 40 -33 40 -174 l0 -136 35
0 35 0 0 140 c0 154 2 160 69 160 24 0 32 -5 37 -25 7 -30 24 -32 55 -6 20 16
22 23 14 47 -9 24 -17 30 -47 32 -22 2 -53 -5 -79 -17 -52 -25 -49 -25 -49 -1
0 23 -28 25 -92 8z"/>
<path d="M9225 873 c-76 -40 -109 -99 -103 -185 10 -131 102 -180 251 -133 86
27 95 51 13 36 -26 -5 -64 -5 -84 0 -49 11 -102 68 -102 109 l0 30 73 0 c39 0
89 3 110 6 35 6 37 8 37 46 0 42 -14 76 -39 95 -23 18 -120 15 -156 -4z m109
-29 c9 -9 16 -32 16 -55 l0 -39 -49 0 c-27 0 -63 -3 -80 -6 -29 -6 -31 -4 -31
20 0 31 24 82 42 89 28 12 87 6 102 -9z"/>
<path d="M9513 878 c-44 -9 -59 -28 -23 -28 32 0 40 -33 40 -174 l0 -136 35 0
35 0 0 175 0 175 -22 -1 c-13 -1 -42 -5 -65 -11z"/>
<path d="M9713 878 c-43 -9 -59 -28 -25 -28 37 0 42 -19 42 -167 l0 -143 35 0
35 0 0 140 0 140 27 11 c42 16 77 8 81 -18 4 -28 22 -29 53 -4 20 16 22 23 14
47 -14 38 -66 44 -125 14 l-42 -21 -5 20 c-6 23 -22 25 -90 9z"/>
<path d="M11458 878 c-43 -11 -49 -25 -15 -30 22 -3 22 -6 25 -155 l3 -153 39
0 40 0 0 140 c0 127 2 140 19 150 36 19 71 12 81 -15 19 -49 74 -20 68 35 -3
32 -6 35 -40 38 -22 2 -56 -5 -83 -17 -44 -20 -45 -20 -45 0 0 22 -29 24 -92
7z"/>
<path d="M11770 875 c-44 -12 -44 -14 5 -30 12 -4 15 -30 15 -155 l0 -150 40
0 40 0 0 140 c0 130 1 140 20 150 34 18 74 9 78 -17 4 -26 9 -27 46 -13 20 7
26 17 26 38 0 15 -5 33 -12 40 -18 18 -67 14 -115 -8 -43 -19 -43 -19 -43 0 0
24 -30 25 -100 5z"/>
<path d="M12165 876 c-70 -32 -109 -95 -109 -177 1 -140 112 -197 267 -139 59
22 69 46 14 34 -107 -23 -186 17 -203 104 l-6 32 83 1 c46 1 98 4 114 8 28 6
30 9 29 55 0 40 -5 53 -28 72 -32 28 -111 32 -161 10z m110 -39 c16 -26 17
-78 0 -82 -5 -2 -40 -6 -77 -8 l-68 -5 0 32 c0 47 41 86 90 86 30 0 43 -5 55
-23z"/>
<path d="M12770 867 c-104 -55 -121 -207 -34 -289 58 -53 166 -57 235 -8 44
32 72 101 67 166 -5 61 -26 96 -78 132 -46 31 -131 31 -190 -1z m147 -42 c58
-66 54 -212 -5 -244 -75 -40 -152 38 -152 153 0 46 22 100 47 115 28 17 85 5
110 -24z"/>
</g>
</svg>
